<?xml version="1.0" standalone="no"?><!DOCTYPE svg PUBLIC "-//W3C//DTD SVG 1.1//EN" "http://www.w3.org/Graphics/SVG/1.1/DTD/svg11.dtd"><svg t="1624868687182" class="icon" viewBox="0 0 1024 1024" version="1.1" xmlns="http://www.w3.org/2000/svg" p-id="1998" width="200" height="200" xmlns:xlink="http://www.w3.org/1999/xlink"><defs><style type="text/css"></style></defs><path d="M702 128c4.706 0 9.174 1.016 13.198 2.84l0.058-0.134C851.376 203.42 944 346.893 944 512c0 238.587-193.413 432-432 432S80 750.587 80 512c0-165.107 92.624-308.58 228.745-381.294l0.057 0.134A31.884 31.884 0 0 1 322 128c17.673 0 32 14.327 32 32 0 13.379-8.21 24.84-19.868 29.62l0.044 0.1C218.108 253.858 144 376.27 144 512c0 203.24 164.76 368 368 368s368-164.76 368-368c0-135.713-74.087-258.127-190.174-322.278l0.043-0.101C678.21 184.84 670 173.379 670 160c0-17.673 14.327-32 32-32z" fill="#1989fa" p-id="1999"></path><path d="M480 80m32 0l0 0q32 0 32 32l0 416q0 32-32 32l0 0q-32 0-32-32l0-416q0-32 32-32Z" fill="#1989fa" p-id="2000"></path></svg>